<svg height="26" width="36" xmlns="http://www.w3.org/2000/svg"><path d="m0 4v4h36v-4c0-2.209-1.791-4-4-4h-28c-2.209 0-4 1.791-4 4z" fill="#0099b5"/><path d="m36 22v-4h-36v4c0 2.209 1.791 4 4 4h28c2.209 0 4-1.791 4-4z" fill="#1eb53a"/><path d="m0 8h36v1.5h-36zm0 8.5h36v1.5h-36z" fill="#ce1126"/><path d="m0 13v3.5h36v-7h-36z" fill="#eee"/><path d="m4.2 4.16c0-1.546 1.125-2.828 2.6-3.076-.169-.028-.343-.044-.52-.044-1.723 0-3.12 1.397-3.12 3.12s1.397 3.12 3.12 3.12c.177 0 .351-.016.52-.044-1.475-.248-2.6-1.53-2.6-3.076zm4.683 2.303-.14-.431-.14.431h-.454l.367.267-.14.431.367-.267.366.267-.14-.431.367-.267zm2.702 0-.14-.431-.14.431h-.453l.367.267-.14.431.366-.267.367.267-.14-.431.367-.267zm-.14-2.927-.14.431h-.453l.367.267-.14.431.366-.267.367.267-.14-.431.367-.267h-.454zm2.843 2.927-.14-.431-.14.431h-.453l.366.267-.14.431.367-.267.367.267-.14-.431.366-.267zm-.14-2.927-.14.431h-.453l.366.267-.14.431.367-.267.367.267-.14-.431.366-.267h-.453zm0-2.496-.14.431h-.453l.366.267-.14.431.367-.267.367.267-.14-.431.366-.267h-.453zm2.843 5.423-.14-.431-.14.431h-.454l.367.267-.14.431.367-.267.366.267-.14-.431.367-.267zm-.14-2.927-.14.431h-.454l.367.267-.14.431.367-.267.366.267-.14-.431.367-.267h-.453zm0-2.496-.14.431h-.454l.367.267-.14.431.367-.267.366.267-.14-.431.367-.267h-.453zm2.842 5.423-.14-.431-.14.431h-.453l.367.267-.14.431.366-.267.367.267-.14-.431.367-.267zm-.14-2.927-.14.431h-.453l.367.267-.14.431.366-.267.367.267-.14-.431.367-.267h-.454zm0-2.496-.14.431h-.453l.367.267-.14.431.366-.267.367.267-.14-.431.367-.267h-.454z" fill="#fff"/></svg>